<svg width="21" height="22" viewBox="0 0 21 22" fill="none" xmlns="http://www.w3.org/2000/svg">
<path d="M21 11.424C21 17.2647 16.2991 21.9993 10.5 21.9993C4.70093 21.9993 0 17.2647 0 11.424C0 5.5833 4.70093 0.848633 10.5 0.848633C16.2991 0.848633 21 5.5833 21 11.424Z" fill="#4A7AFF"/>
<path d="M10.9608 21.9888C16.546 21.746 21 17.1092 21 11.4243C21 11.3831 20.9989 11.3421 20.9984 11.301L13.71 3.96008L5.91699 12.164L10.2469 16.5249L8.25039 19.259L10.9608 21.9888Z" fill="#0053BF"/>
<path d="M13.7099 3.95991V6.35459C13.7099 6.35459 10.9801 5.95553 10.9801 7.72928V9.50303H13.4457L13.1376 12.208H10.9801V19.2588H8.25031V12.208L5.91675 12.1636V9.50303H8.20625V7.46318C8.20625 7.46318 8.05517 4.42868 11.0242 3.87132C12.257 3.63975 13.7099 3.95991 13.7099 3.95991Z" fill="white"/>
<path d="M13.7099 6.35459V3.95991C13.7099 3.95991 12.2571 3.63975 11.0242 3.87132C10.8316 3.90746 10.6525 3.95426 10.4854 4.00961V19.2588H10.9802V12.208H13.1375L13.4457 9.50303H10.9802C10.9802 9.50303 10.9802 9.50303 10.9802 7.72928C10.9802 5.95553 13.7099 6.35459 13.7099 6.35459Z" fill="#DCE1EB"/>
</svg>
