<svg width="21" height="22" viewBox="0 0 21 22" fill="none" xmlns="http://www.w3.org/2000/svg">
<path d="M10.5 21.9993C16.299 21.9993 21 17.2646 21 11.424C21 5.58338 16.299 0.848633 10.5 0.848633C4.70101 0.848633 0 5.58338 0 11.424C0 17.2646 4.70101 21.9993 10.5 21.9993Z" fill="#6C27B3"/>
<path d="M15.369 6.33971C14.1144 6.49967 12.8064 6.49409 11.4899 6.36785C9.65152 6.22541 6.96467 5.37083 5.97476 7.07999C4.3845 9.8162 5.16884 13.3192 5.53942 16.4193L11.0657 21.984C16.4137 21.6981 20.6997 17.3818 20.9846 11.9957L15.369 6.33971Z" fill="#501A96"/>
<path d="M12.9292 5.37085H8.07073C6.09623 5.37085 4.4899 6.98871 4.4899 8.97737V13.8707C4.4899 15.8593 6.09623 17.4773 8.07077 17.4773H12.9293C14.9037 17.4773 16.5101 15.8594 16.5101 13.8707V8.97737C16.5101 6.98871 14.9037 5.37085 12.9292 5.37085ZM15.3009 13.8708C15.3009 15.19 14.2391 16.2594 12.9293 16.2594H8.07077C6.76097 16.2594 5.69916 15.19 5.69916 13.8708V8.97742C5.69916 7.65822 6.76097 6.58875 8.07077 6.58875H12.9293C14.2391 6.58875 15.3009 7.65826 15.3009 8.97742V13.8708Z" fill="white"/>
<path d="M10.5 8.29309C8.78578 8.29309 7.39108 9.69779 7.39108 11.4243C7.39108 13.1507 8.78578 14.5554 10.5 14.5554C12.2142 14.5554 13.6088 13.1508 13.6088 11.4243C13.6088 9.69779 12.2142 8.29309 10.5 8.29309ZM10.5 13.3375C9.45085 13.3375 8.60031 12.481 8.60031 11.4243C8.60031 10.3676 9.45085 9.51099 10.5 9.51099C11.5491 9.51099 12.3995 10.3676 12.3995 11.4243C12.3995 12.481 11.5491 13.3375 10.5 13.3375Z" fill="white"/>
<path d="M14.3597 8.31619C14.3597 8.7303 14.0261 9.06609 13.6147 9.06609C13.2033 9.06609 12.8698 8.7303 12.8698 8.31619C12.8698 7.90203 13.2033 7.56628 13.6147 7.56628C14.0262 7.56628 14.3597 7.90195 14.3597 8.31619Z" fill="#D1D1D1"/>
<path d="M12.9293 5.37085H10.4764V6.58875H12.9293C14.239 6.58875 15.3009 7.65826 15.3009 8.97742V13.8708C15.3009 15.19 14.239 16.2594 12.9293 16.2594H10.4764V17.4773H12.9293C14.9037 17.4773 16.5101 15.8594 16.5101 13.8707V8.97737C16.5101 6.98871 14.9037 5.37085 12.9293 5.37085Z" fill="#D1D1D1"/>
<path d="M10.5 8.29309C10.4921 8.29309 10.4844 8.29367 10.4764 8.29367V9.51157C10.4843 9.51149 10.4921 9.51099 10.5 9.51099C11.5491 9.51099 12.3995 10.3676 12.3995 11.4243C12.3995 12.481 11.5492 13.3375 10.5 13.3375C10.4921 13.3375 10.4843 13.337 10.4764 13.3369V14.5548C10.4844 14.5549 10.4921 14.5554 10.5 14.5554C12.2142 14.5554 13.6088 13.1508 13.6088 11.4243C13.6088 9.69779 12.2142 8.29309 10.5 8.29309Z" fill="#D1D1D1"/>
</svg>
