<svg width="21" height="23" viewBox="0 0 21 23" fill="none" xmlns="http://www.w3.org/2000/svg">
<g clip-path="url(#clip0_1_63)">
<path d="M10.5009 22.1327C16.2998 22.1327 21.0008 17.3989 21.0008 11.5594C21.0008 5.71993 16.2998 0.986084 10.5009 0.986084C4.70197 0.986084 0.00100708 5.71993 0.00100708 11.5594C0.00100708 17.3989 4.70197 22.1327 10.5009 22.1327Z" fill="#55ACEE"/>
<path d="M16.9317 8.58494C16.4817 8.78586 15.9977 8.92175 15.4901 8.98244C16.0083 8.66976 16.4061 8.175 16.5938 7.58449C16.1089 7.87418 15.5715 8.08434 15.0001 8.19761C14.5422 7.70663 13.8899 7.39978 13.1677 7.39978C11.7818 7.39978 10.6579 8.5316 10.6579 9.9271C10.6579 10.1252 10.6802 10.318 10.7232 10.5031C8.63737 10.3977 6.78793 9.39163 5.54999 7.86212C5.33399 8.23531 5.21009 8.66976 5.21009 9.13285C5.21009 10.0095 5.65349 10.7834 6.32656 11.2365C5.91534 11.2235 5.52809 11.1098 5.18987 10.92C5.18968 10.9308 5.18968 10.9415 5.18968 10.9521C5.18968 12.1766 6.05516 13.198 7.20308 13.43C6.9927 13.4881 6.77053 13.5188 6.54199 13.5188C6.3799 13.5188 6.22287 13.5031 6.06976 13.4737C6.38907 14.4776 7.31576 15.2083 8.41426 15.2288C7.55515 15.9068 6.47311 16.3107 5.29693 16.3107C5.09479 16.3107 4.89452 16.2988 4.69855 16.2753C5.80866 16.9926 7.12821 17.4109 8.54547 17.4109C13.1618 17.4109 15.6864 13.5599 15.6864 10.2198C15.6864 10.1103 15.684 10.0012 15.6791 9.89299C16.1699 9.53676 16.5953 9.09176 16.9317 8.58494Z" fill="#F1F2F2"/>
</g>
<defs>
<clipPath id="clip0_1_63">
<rect width="21" height="21.1469" fill="white" transform="translate(0 0.986084)"/>
</clipPath>
</defs>
</svg>
