<svg width="21" height="22" viewBox="0 0 21 22" fill="none" xmlns="http://www.w3.org/2000/svg">
<path d="M10.5 21.9993C16.299 21.9993 21 17.2646 21 11.424C21 5.58338 16.299 0.848633 10.5 0.848633C4.70101 0.848633 0 5.58338 0 11.424C0 17.2646 4.70101 21.9993 10.5 21.9993Z" fill="#D22215"/>
<path d="M15.7851 7.88538C15.4703 7.98217 15.1419 8.06532 14.8131 8.14815C12.4798 8.64664 9.36866 7.29357 8.02523 9.50121C6.90481 11.2566 6.55105 13.4533 5.27649 15.0228L12.0844 21.8796C16.6154 21.1889 20.1962 17.5819 20.8813 13.0181L15.7851 7.88538Z" fill="#A81411"/>
<path d="M14.013 7.14148H6.98706C5.60861 7.14148 4.49118 8.26697 4.49118 9.65527V13.1927C4.49118 14.5811 5.60865 15.7065 6.98706 15.7065H14.013C15.3914 15.7065 16.5088 14.581 16.5088 13.1927V9.65527C16.5088 8.26697 15.3914 7.14148 14.013 7.14148ZM12.325 11.5961L9.03879 13.1746C8.95118 13.2167 8.84999 13.1525 8.84999 13.0548V9.79899C8.84999 9.69985 8.95384 9.63561 9.04154 9.68043L12.3277 11.3577C12.4256 11.4075 12.4238 11.5487 12.325 11.5961Z" fill="white"/>
<path d="M14.0129 7.14148H10.4293V10.3886L12.3278 11.3576C12.4256 11.4075 12.4238 11.5486 12.325 11.5961L10.4293 12.5067V15.7065H14.0129C15.3914 15.7065 16.5088 14.581 16.5088 13.1927V9.65527C16.5088 8.26697 15.3914 7.14148 14.0129 7.14148Z" fill="#D1D1D1"/>
</svg>
